<svg width="74" height="53" viewBox="0 0 74 53" fill="none" xmlns="http://www.w3.org/2000/svg">
<path d="M41.0678 25.9789C41.8417 26.6901 42.5892 27.3781 43.3368 28.065C44.2251 28.8799 45.1377 29.6696 45.9979 30.5124C47.6928 32.1757 48.8616 34.1443 49.3681 36.4796C49.581 37.4597 49.8024 38.4407 49.7517 39.4488C49.7039 40.4009 49.5078 41.3333 49.2724 42.2565C48.9347 43.5791 48.3794 44.7963 47.6009 45.9257C46.6113 47.3603 45.3901 48.5401 43.9456 49.5155C42.9682 50.1754 41.9251 50.6916 40.8155 51.0622C39.779 51.4085 38.7078 51.6409 37.6235 51.793C36.7249 51.919 35.8198 51.9545 34.9137 51.8658C33.9869 51.7744 33.078 51.5886 32.1719 51.3739C30.1628 50.8988 28.3975 49.9617 26.8019 48.6717C25.9953 48.0193 25.288 47.2791 24.6615 46.4605C23.61 45.0856 22.898 43.553 22.5172 41.8663C21.8578 38.9504 22.2368 36.1698 23.6231 33.5282C24.3472 32.1496 25.3377 30.9773 26.4943 29.9309C29.5671 27.1503 32.6259 24.3548 35.6875 21.563C36.9022 20.455 38.1094 19.3377 39.3213 18.227C39.8578 17.7351 40.4084 17.26 40.9337 16.7569C41.5593 16.1586 42.002 15.4389 42.3163 14.6325C42.6624 13.7439 42.7477 12.8319 42.593 11.9032C42.4832 11.2461 42.2431 10.6263 41.9045 10.0467C41.3267 9.05725 40.5181 8.29839 39.5276 7.74022C38.3176 7.05884 37.0063 6.77042 35.6143 6.82642C34.1633 6.88522 32.8557 7.33699 31.686 8.18545C30.8259 8.80896 30.1834 9.60329 29.7144 10.561C29.1807 11.6512 29.131 12.7899 29.343 13.9352C29.4958 14.7631 29.8945 15.5229 30.4423 16.1754C30.7875 16.5861 31.1814 16.9594 31.5726 17.3291C32.0922 17.82 32.6315 18.2905 33.1606 18.7721C33.2337 18.8393 33.2966 18.9168 33.381 19.0082C32.0247 20.8498 30.6721 22.6858 29.3007 24.547C29.1563 24.4304 29.0269 24.337 28.9105 24.2306C27.8731 23.2823 26.8085 22.361 25.8096 21.3744C24.7309 20.3094 23.8463 19.0876 23.2498 17.6884C22.6063 16.18 22.2396 14.6157 22.2086 12.9579C22.1767 11.2573 22.5388 9.64716 23.1447 8.08745C23.5584 7.0215 24.2056 6.07223 24.9166 5.17337C25.6135 4.29224 26.4314 3.53058 27.3282 2.86133C28.3787 2.07727 29.5277 1.46403 30.7659 1.01413C31.8577 0.617435 32.9861 0.378484 34.1276 0.189937C34.2383 0.171269 34.3537 0.177803 34.4672 0.177803C35.3986 0.175936 36.331 0.157267 37.2615 0.181536C37.7229 0.19367 38.1854 0.268342 38.6422 0.346748C39.9638 0.572631 41.2479 0.956259 42.4363 1.56017C44.4924 2.60558 46.2239 4.04488 47.5531 5.95462C48.6899 7.58808 49.3268 9.39328 49.6082 11.3394C49.6729 11.7846 49.7489 12.2336 49.7526 12.6816C49.7601 13.7644 49.5407 14.8191 49.2743 15.8645C48.6439 18.3381 47.2679 20.3439 45.3854 22.0381C44.1444 23.1553 42.9175 24.2885 41.685 25.4142C41.4824 25.5971 41.2817 25.7829 41.0678 25.9789ZM35.9558 30.6562C35.8873 30.7075 35.8451 30.7336 35.8094 30.7663C34.3434 32.1011 32.8754 33.434 31.4159 34.7753C31.0839 35.0796 30.7518 35.3922 30.4704 35.7413C29.9226 36.4227 29.4865 37.1881 29.3383 38.0478C29.1563 39.1006 29.1863 40.147 29.6234 41.1765C30.2265 42.5962 31.2283 43.6183 32.5659 44.3268C33.3669 44.7515 34.2252 45.0464 35.1472 45.0996C36.0036 45.1491 36.8666 45.178 37.6967 44.9484C38.781 44.6488 39.7903 44.1877 40.6457 43.4223C41.745 42.4376 42.4298 41.2475 42.6249 39.7802C42.7599 38.7674 42.5592 37.8135 42.1437 36.8978C41.7647 36.0624 41.171 35.3857 40.4919 34.7762C39.6796 34.0463 38.8767 33.308 38.0681 32.5734C37.3721 31.9405 36.6752 31.3086 35.9558 30.6562Z" fill="black"/>
<path d="M66.8702 39.5216C66.8805 38.6545 66.8383 37.7883 66.8242 36.9211C66.8102 36.0447 66.783 35.1682 66.7614 34.2917C66.7398 33.4283 66.7164 32.564 66.6939 31.7006C66.6714 30.8241 66.647 29.9477 66.6263 29.0712C66.6048 28.1985 66.586 27.3258 66.5663 26.4288C69.0482 26.4288 71.4954 26.4288 73.9689 26.4288C73.9689 35.0609 73.9689 43.6846 73.9689 52.3428C73.861 52.3521 73.7532 52.3699 73.6444 52.3699C71.2028 52.3717 68.7612 52.3652 66.3196 52.3792C66.0354 52.3811 65.9266 52.2522 65.815 52.0366C63.7983 48.1415 61.7779 44.2474 59.7556 40.3551C59.6918 40.2319 59.6627 40.0732 59.4488 39.9799C59.4301 41.0402 59.4986 42.0576 59.5164 43.076C59.5342 44.1027 59.5698 45.1295 59.597 46.1553C59.6242 47.182 59.6486 48.2087 59.6758 49.2346C59.703 50.2594 59.7312 51.2843 59.7584 52.3017C59.4573 52.3839 52.8173 52.4025 52.3633 52.326C52.3633 43.7079 52.3633 35.0851 52.3633 26.4185C52.4824 26.4138 52.6025 26.4045 52.7235 26.4045C55.0769 26.4036 57.4303 26.4082 59.7837 26.398C60.0463 26.397 60.1824 26.4764 60.3005 26.7144C62.078 30.2669 63.8658 33.8148 65.6518 37.3626C65.9726 38.0011 66.2933 38.6386 66.6179 39.2761C66.6648 39.3694 66.7276 39.4544 66.7839 39.543C66.8121 39.5374 66.8411 39.53 66.8702 39.5216Z" fill="black"/>
<path d="M66.816 12.4175C66.8695 11.036 66.8104 9.66953 66.7766 8.3021C66.7428 6.93747 66.7081 5.57284 66.6725 4.20727C66.6368 2.83144 66.6003 1.4556 66.5637 0.086301C66.8657 0.00322825 73.0367 -0.030374 73.9278 0.0405645C74.0113 0.304717 74.031 24.1447 73.9419 24.5722C73.8265 24.5769 73.7046 24.5872 73.5817 24.5872C71.1776 24.5881 68.7736 24.5834 66.3695 24.5946C66.0909 24.5956 65.9502 24.5004 65.8199 24.2623C63.8069 20.5754 61.7846 16.8941 59.7642 13.2127C59.6957 13.0877 59.6197 12.9654 59.4978 12.8552C59.4293 13.8353 59.4978 14.8014 59.5156 15.7674C59.5335 16.7438 59.57 17.7211 59.5963 18.6974C59.6235 19.6737 59.6479 20.651 59.6741 21.6273C59.7004 22.5999 59.7286 23.5716 59.7567 24.5666C57.272 24.5666 54.8351 24.5666 52.401 24.5666C52.3166 24.2763 52.2753 1.07944 52.356 0.0816337C52.6383 0.00136116 59.0992 -0.0341079 60.1553 0.042431C60.6975 1.05984 61.2509 2.09685 61.8034 3.13479C62.3568 4.1746 62.9102 5.21534 63.4636 6.25608C64.0114 7.28563 64.5564 8.3161 65.107 9.34378C65.6595 10.3724 66.1932 11.4113 66.816 12.4175Z" fill="black"/>
<path d="M16.2854 11.6241C16.4711 11.6885 16.5705 11.7267 16.6709 11.7585C17.3481 11.9685 17.9869 12.2597 18.5666 12.6685C20.2277 13.8409 21.0654 15.4398 21.0372 17.4709C20.9997 20.2524 19.6668 22.2163 17.1933 23.4465C16.0424 24.0196 14.8062 24.3099 13.5361 24.4397C12.6619 24.5283 11.7802 24.5769 10.9013 24.5815C7.44108 24.5974 3.98085 24.5881 0.520606 24.5881C0.370528 24.5881 0.22045 24.5881 0.0778758 24.5881C-0.00935711 24.3015 -0.0309305 0.525916 0.0525504 0.0386801C0.168861 0.0330797 0.290799 0.0228125 0.412738 0.0228125C4.75375 0.0218791 9.09476 0.0172123 13.4358 0.0302799C13.8701 0.0312133 14.3175 0.098418 14.7349 0.216027C15.3737 0.396173 16.0059 0.614589 16.6174 0.874075C17.4269 1.21663 18.1032 1.75614 18.6857 2.41419C19.3085 3.11797 19.7015 3.92816 19.8741 4.8485C20.042 5.74363 20.0683 6.64156 19.9088 7.53856C19.5974 9.29149 18.5384 10.476 16.9954 11.2834C16.7891 11.3898 16.5762 11.485 16.2854 11.6241ZM7.86599 18.0627C8.90716 18.0375 9.89674 18.0235 10.8854 17.9843C11.2531 17.9693 11.5861 17.8134 11.904 17.624C12.6385 17.1871 12.8992 15.8253 11.9641 15.1981C11.6245 14.9703 11.2587 14.8126 10.8563 14.7538C9.88173 14.6109 8.90153 14.6809 7.92415 14.694C7.90539 14.694 7.88663 14.7239 7.86599 14.7416C7.86599 15.8234 7.86599 16.9071 7.86599 18.0627ZM7.86318 9.27935C7.9279 9.29896 7.96354 9.31856 7.99825 9.31856C8.75333 9.31949 9.50841 9.32976 10.2635 9.31109C10.7081 9.29989 11.1358 9.19068 11.5091 8.92933C12.0091 8.58024 12.1357 8.07433 12.0935 7.50776C12.0551 6.98412 11.7389 6.65836 11.27 6.48662C10.9782 6.37928 10.665 6.28314 10.3582 6.27193C9.55437 6.24207 8.74864 6.26167 7.94385 6.26353C7.92321 6.26353 7.90258 6.28687 7.86318 6.31114C7.86318 7.28468 7.86318 8.26941 7.86318 9.27935Z" fill="black"/>
<path d="M0.00292969 26.2654C6.83711 26.2654 13.6413 26.2654 20.4642 26.2654C20.4642 28.612 20.4642 30.9352 20.4642 33.307C18.426 33.307 16.4074 33.307 14.3551 33.307C14.3551 39.6756 14.3551 45.9966 14.3551 52.3456C11.5468 52.3456 8.77218 52.3456 5.96197 52.3456C5.96197 46.0068 5.96197 39.6877 5.96197 33.3126C4.93769 33.3051 3.94905 33.3098 2.96041 33.3088C1.98208 33.3079 1.00376 33.3088 0.00292969 33.3088C0.00292969 30.9436 0.00292969 28.6204 0.00292969 26.2654Z" fill="black"/>
</svg>
