<svg width="67" height="49" viewBox="0 0 67 49" fill="none" xmlns="http://www.w3.org/2000/svg">
<path d="M36.8506 24.3028C37.5449 24.9682 38.2157 25.6117 38.8866 26.2544C39.6836 27.0167 40.5025 27.7554 41.2743 28.5439C42.7952 30.0999 43.8439 31.9414 44.2984 34.1261C44.4895 35.043 44.6881 35.9607 44.6427 36.9037C44.5997 37.7944 44.4238 38.6667 44.2126 39.5303C43.9096 40.7676 43.4113 41.9062 42.7127 42.9627C41.8248 44.3048 40.7289 45.4085 39.4328 46.321C38.5558 46.9384 37.6199 47.4212 36.6242 47.7679C35.6941 48.0918 34.733 48.3092 33.76 48.4516C32.9537 48.5695 32.1415 48.6026 31.3284 48.5197C30.4969 48.4341 29.6813 48.2604 28.8683 48.0595C27.0654 47.6151 25.4814 46.7384 24.0498 45.5317C23.3259 44.9213 22.6913 44.2289 22.1291 43.4631C21.1856 42.1769 20.5468 40.7431 20.2051 39.1653C19.6134 36.4374 19.9534 33.8362 21.1974 31.3651C21.8472 30.0754 22.7359 28.9787 23.7737 27.9999C26.531 25.3987 29.2756 22.7835 32.0228 20.1718C33.1128 19.1353 34.196 18.0901 35.2834 17.051C35.7648 16.5908 36.2589 16.1464 36.7302 15.6758C37.2916 15.116 37.6889 14.4428 37.9708 13.6884C38.2814 12.8571 38.358 12.004 38.2191 11.1352C38.1206 10.5205 37.9052 9.94068 37.6013 9.39843C37.0829 8.47286 36.3574 7.76296 35.4686 7.2408C34.3828 6.60337 33.2062 6.33356 31.9572 6.38595C30.6551 6.44096 29.4818 6.86358 28.4323 7.6573C27.6605 8.24059 27.084 8.98367 26.6631 9.87956C26.1842 10.8994 26.1396 11.9647 26.3298 13.0361C26.467 13.8106 26.8247 14.5214 27.3163 15.1318C27.626 15.516 27.9795 15.8652 28.3305 16.211C28.7967 16.6703 29.2807 17.1104 29.7554 17.561C29.821 17.6238 29.8774 17.6963 29.9532 17.7819C28.7361 19.5047 27.5225 21.2222 26.292 22.9633C26.1623 22.8542 26.0462 22.7669 25.9418 22.6673C25.0109 21.7802 24.0557 20.9183 23.1593 19.9954C22.1914 18.9991 21.3977 17.8561 20.8624 16.5472C20.285 15.1361 19.9559 13.6727 19.9282 12.1219C19.8995 10.531 20.2244 9.02471 20.7681 7.56562C21.1393 6.56844 21.7201 5.68042 22.358 4.83954C22.9834 4.01525 23.7173 3.30274 24.5219 2.67666C25.4646 1.94319 26.4956 1.36951 27.6066 0.948633C28.5863 0.57753 29.5988 0.353995 30.6231 0.177612C30.7225 0.160148 30.826 0.166261 30.9278 0.166261C31.7636 0.164514 32.6002 0.14705 33.4351 0.169753C33.8492 0.181104 34.2642 0.250959 34.674 0.324307C35.8599 0.535617 37.0122 0.894496 38.0786 1.45945C39.9235 2.43741 41.4772 3.78386 42.6698 5.5704C43.6899 7.09847 44.2614 8.7872 44.5139 10.6078C44.572 11.0243 44.6401 11.4443 44.6435 11.8634C44.6502 12.8763 44.4533 13.863 44.2143 14.841C43.6487 17.1549 42.4139 19.0314 40.7247 20.6162C39.6112 21.6614 38.5103 22.7215 37.4044 23.7745C37.2226 23.9457 37.0425 24.1194 36.8506 24.3028ZM32.2635 28.6783C32.2021 28.7264 32.1642 28.7508 32.1322 28.7814C30.8167 30.03 29.4995 31.2769 28.1899 32.5317C27.8919 32.8164 27.594 33.1089 27.3415 33.4354C26.85 34.0729 26.4586 34.7889 26.3256 35.5931C26.1623 36.578 26.1893 37.5569 26.5815 38.52C27.1227 39.8481 28.0216 40.8042 29.2218 41.467C29.9405 41.8643 30.7107 42.1402 31.538 42.19C32.3065 42.2363 33.0808 42.2633 33.8257 42.0485C34.7986 41.7682 35.7042 41.3369 36.4718 40.6209C37.4583 39.6997 38.0727 38.5863 38.2477 37.2137C38.3689 36.2663 38.1888 35.3739 37.816 34.5173C37.4759 33.7358 36.9432 33.1028 36.3338 32.5326C35.6049 31.8497 34.8845 31.159 34.1589 30.4719C33.5344 29.8798 32.9091 29.2887 32.2635 28.6783Z" fill="#2DD3CE"/>
<path d="M60.0025 36.9713C60.0117 36.1601 59.9738 35.3498 59.9612 34.5386C59.9486 33.7187 59.9242 32.8988 59.9048 32.0789C59.8855 31.2712 59.8644 30.4626 59.8442 29.6549C59.824 28.835 59.8021 28.0151 59.7836 27.1951C59.7643 26.3787 59.7474 25.5623 59.7298 24.7232C61.9568 24.7232 64.1527 24.7232 66.3721 24.7232C66.3721 32.7984 66.3721 40.8657 66.3721 48.9654C66.2754 48.9741 66.1786 48.9907 66.0809 48.9907C63.8901 48.9924 61.6992 48.9863 59.5084 48.9994C59.2534 49.0012 59.1557 48.8807 59.0556 48.679C57.246 45.0352 55.4331 41.3922 53.6185 37.7511C53.5612 37.6358 53.5351 37.4874 53.3432 37.4C53.3264 38.392 53.3879 39.3438 53.4038 40.2964C53.4198 41.2569 53.4518 42.2174 53.4762 43.177C53.5006 44.1375 53.5225 45.098 53.5469 46.0577C53.5713 47.0164 53.5966 47.9752 53.621 48.9269C53.3508 49.0038 47.3927 49.0212 46.9854 48.9496C46.9854 40.8875 46.9854 32.8211 46.9854 24.7136C47.0922 24.7092 47.2 24.7005 47.3086 24.7005C49.4203 24.6996 51.532 24.7039 53.6437 24.6943C53.8794 24.6935 54.0014 24.7677 54.1075 24.9904C55.7024 28.3137 57.3066 31.6327 58.9091 34.9516C59.197 35.5489 59.4848 36.1453 59.7761 36.7417C59.8181 36.829 59.8745 36.9084 59.925 36.9914C59.9503 36.9862 59.9764 36.9792 60.0025 36.9713Z" fill="#082D44"/>
<path d="M59.954 11.6164C60.0019 10.3241 59.9489 9.04571 59.9186 7.7665C59.8883 6.4899 59.8572 5.21331 59.8252 3.93584C59.7932 2.64877 59.7604 1.36169 59.7276 0.0807334C59.9986 0.00301998 65.5359 -0.0284145 66.3354 0.0379475C66.4103 0.285059 66.428 22.5871 66.3481 22.987C66.2445 22.9913 66.1351 23.0009 66.0249 23.0009C63.8677 23.0018 61.7105 22.9974 59.5533 23.0079C59.3034 23.0088 59.1771 22.9197 59.0601 22.6971C57.2539 19.248 55.4393 15.8042 53.6264 12.3603C53.5649 12.2433 53.4968 12.1289 53.3873 12.0259C53.3259 12.9427 53.3873 13.8465 53.4033 14.7502C53.4193 15.6636 53.4521 16.5778 53.4757 17.4911C53.5001 18.4045 53.522 19.3187 53.5456 20.2321C53.5691 21.1419 53.5944 22.0509 53.6196 22.9817C51.3901 22.9817 49.2034 22.9817 47.0193 22.9817C46.9436 22.7102 46.9066 1.0098 46.9789 0.0763672C47.2323 0.00127334 53.0296 -0.0319075 53.9773 0.0396936C54.4638 0.991464 54.9604 1.96157 55.4561 2.93255C55.9527 3.90528 56.4493 4.87888 56.9459 5.85248C57.4374 6.8156 57.9264 7.7796 58.4205 8.74097C58.9162 9.70322 59.3951 10.6751 59.954 11.6164Z" fill="#082D44"/>
<path d="M14.6129 10.8738C14.7796 10.9341 14.8688 10.9699 14.9588 10.9995C15.5665 11.196 16.1397 11.4684 16.6598 11.8509C18.1504 12.9476 18.902 14.4434 18.8768 16.3434C18.8431 18.9455 17.6471 20.7827 15.4276 21.9336C14.3949 22.4697 13.2856 22.7412 12.146 22.8626C11.3616 22.9456 10.5704 22.991 9.78179 22.9953C6.67691 23.0102 3.57202 23.0015 0.467142 23.0015C0.332476 23.0015 0.19781 23.0015 0.0698782 23.0015C-0.00839616 22.7334 -0.027754 0.491648 0.0471536 0.035846C0.151519 0.0306069 0.260935 0.0210021 0.370351 0.0210021C4.26555 0.0201289 8.16075 0.0157631 12.056 0.0279877C12.4456 0.0288609 12.8471 0.09173 13.2216 0.201751C13.7948 0.370276 14.3621 0.574601 14.9109 0.817346C15.6372 1.1378 16.244 1.6425 16.7667 2.2581C17.3256 2.91648 17.6782 3.6744 17.8331 4.53536C17.9838 5.37275 18.0073 6.21275 17.8642 7.05188C17.5848 8.69172 16.6346 9.79979 15.25 10.5551C15.0649 10.6546 14.8738 10.7437 14.6129 10.8738ZM7.05818 16.897C7.99242 16.8735 8.88037 16.8604 9.76748 16.8237C10.0974 16.8097 10.3962 16.6639 10.6815 16.4866C11.3405 16.078 11.5745 14.804 10.7354 14.2172C10.4307 14.0042 10.1025 13.8566 9.74139 13.8016C8.8669 13.668 7.98737 13.7335 7.11036 13.7457C7.09353 13.7457 7.07669 13.7737 7.05818 13.7902C7.05818 14.8023 7.05818 15.816 7.05818 16.897ZM7.05565 8.68037C7.11373 8.6987 7.14571 8.71704 7.17685 8.71704C7.85439 8.71791 8.53192 8.72752 9.20946 8.71006C9.60841 8.69958 9.9922 8.59741 10.3272 8.35292C10.7758 8.02635 10.8894 7.55309 10.8515 7.02306C10.817 6.53321 10.5334 6.22847 10.1126 6.0678C9.8508 5.96739 9.56969 5.87745 9.29447 5.86697C8.57316 5.83903 7.85018 5.85736 7.12803 5.85911C7.10952 5.85911 7.091 5.88094 7.05565 5.90364C7.05565 6.81437 7.05565 7.73558 7.05565 8.68037Z" fill="#082D44"/>
<path d="M0.00292969 24.5703C6.13526 24.5703 12.2407 24.5703 18.3629 24.5703C18.3629 26.7655 18.3629 28.9389 18.3629 31.1576C16.534 31.1576 14.7227 31.1576 12.8812 31.1576C12.8812 37.1153 12.8812 43.0285 12.8812 48.9679C10.3612 48.9679 7.8716 48.9679 5.34999 48.9679C5.34999 43.0382 5.34999 37.1267 5.34999 31.1629C4.4309 31.1559 3.54379 31.1602 2.65668 31.1594C1.77883 31.1585 0.90098 31.1594 0.00292969 31.1594C0.00292969 28.9467 0.00292969 26.7734 0.00292969 24.5703Z" fill="#082D44"/>
</svg>
