<svg width="26" height="24" viewBox="0 0 26 24" fill="none" xmlns="http://www.w3.org/2000/svg">
<path d="M15.472 7.072V9.712H6.112V16.744C6.112 17.288 6.144 17.688 6.208 17.944C6.272 18.2 6.368 18.392 6.496 18.52C6.72 18.76 7.088 18.88 7.6 18.88C8.032 18.88 8.448 18.792 8.848 18.616C9.248 18.424 9.656 18.128 10.072 17.728C10.424 17.408 10.696 17.064 10.888 16.696C11.08 16.328 11.176 15.952 11.176 15.568C11.176 15.264 11.08 15.016 10.888 14.824C10.696 14.632 10.384 14.536 9.952 14.536C9.744 14.536 9.552 14.544 9.376 14.56C9.216 14.576 9.064 14.6 8.92 14.632L8.488 12.04C8.84 11.96 9.192 11.896 9.544 11.848C9.896 11.8 10.304 11.776 10.768 11.776C11.616 11.776 12.296 11.92 12.808 12.208C13.32 12.496 13.696 12.88 13.936 13.36C14.176 13.84 14.296 14.384 14.296 14.992C14.296 15.872 14.112 16.696 13.744 17.464C13.376 18.216 12.888 18.896 12.28 19.504C11.64 20.128 10.904 20.624 10.072 20.992C9.24 21.344 8.352 21.52 7.408 21.52C6.544 21.52 5.872 21.44 5.392 21.28C4.912 21.12 4.504 20.888 4.168 20.584C3.832 20.296 3.544 19.872 3.304 19.312C3.064 18.752 2.944 17.888 2.944 16.72V9.712H0.76V7.072H15.472ZM10.12 7.072C10.104 6.576 9.976 6.224 9.736 6.016C9.496 5.792 9.072 5.68 8.464 5.68H6.664C5.448 5.68 4.456 5.568 3.688 5.344C2.936 5.104 2.344 4.744 1.912 4.264C1.608 3.928 1.384 3.536 1.24 3.088C1.112 2.624 1.048 2.096 1.048 1.504C1.048 1.264 1.056 1.048 1.072 0.855999C1.088 0.647999 1.12 0.399999 1.168 0.111999L4.168 0.303999C4.152 0.447999 4.136 0.575999 4.12 0.687998C4.12 0.799999 4.12 0.903999 4.12 0.999999C4.12 1.336 4.152 1.64 4.216 1.912C4.296 2.168 4.424 2.384 4.6 2.56C4.776 2.72 5 2.84 5.272 2.92C5.544 3 5.984 3.04 6.592 3.04H8.488C9.432 3.04 10.176 3.112 10.72 3.256C11.28 3.4 11.752 3.656 12.136 4.024C12.44 4.328 12.672 4.728 12.832 5.224C13.008 5.704 13.104 6.32 13.12 7.072H10.12ZM18.6346 14.368C19.6586 14.976 20.6026 15.68 21.4666 16.48C22.3306 17.264 23.1146 18.112 23.8186 19.024C24.5226 19.936 25.1546 20.88 25.7146 21.856L23.3146 23.128C22.7226 22.28 22.1146 21.488 21.4906 20.752C20.8666 20.016 20.1626 19.312 19.3786 18.64C18.6106 17.968 17.7146 17.328 16.6906 16.72L18.6346 14.368ZM16.7626 10.624C16.7626 9.92 16.9226 9.304 17.2426 8.776C17.5786 8.248 18.0266 7.832 18.5866 7.528C19.1466 7.224 19.7786 7.072 20.4826 7.072C21.1866 7.072 21.8186 7.224 22.3786 7.528C22.9386 7.832 23.3786 8.248 23.6986 8.776C24.0346 9.304 24.2026 9.92 24.2026 10.624C24.2026 11.328 24.0346 11.952 23.6986 12.496C23.3786 13.024 22.9386 13.44 22.3786 13.744C21.8186 14.048 21.1866 14.2 20.4826 14.2C19.7786 14.2 19.1466 14.056 18.5866 13.768C18.0266 13.464 17.5786 13.04 17.2426 12.496C16.9226 11.952 16.7626 11.328 16.7626 10.624ZM19.1866 10.624C19.1866 11.008 19.3066 11.328 19.5466 11.584C19.8026 11.824 20.1146 11.944 20.4826 11.944C20.8506 11.944 21.1546 11.824 21.3946 11.584C21.6506 11.328 21.7786 11.008 21.7786 10.624C21.7786 10.256 21.6506 9.952 21.3946 9.712C21.1546 9.456 20.8506 9.328 20.4826 9.328C20.1146 9.328 19.8026 9.456 19.5466 9.712C19.3066 9.952 19.1866 10.256 19.1866 10.624Z" fill="black"/>
</svg>
