<svg width="43" height="39" viewBox="0 0 43 39" fill="none" xmlns="http://www.w3.org/2000/svg">
<path d="M25.12 12.12V16.52H9.52V28.24C9.52 29.1467 9.57333 29.8133 9.68 30.24C9.78667 30.6667 9.94667 30.9867 10.16 31.2C10.5333 31.6 11.1467 31.8 12 31.8C12.72 31.8 13.4133 31.6533 14.08 31.36C14.7467 31.04 15.4267 30.5467 16.12 29.88C16.7067 29.3467 17.16 28.7733 17.48 28.16C17.8 27.5467 17.96 26.92 17.96 26.28C17.96 25.7733 17.8 25.36 17.48 25.04C17.16 24.72 16.64 24.56 15.92 24.56C15.5733 24.56 15.2533 24.5733 14.96 24.6C14.6933 24.6267 14.44 24.6667 14.2 24.72L13.48 20.4C14.0667 20.2667 14.6533 20.16 15.24 20.08C15.8267 20 16.5067 19.96 17.28 19.96C18.6933 19.96 19.8267 20.2 20.68 20.68C21.5333 21.16 22.16 21.8 22.56 22.6C22.96 23.4 23.16 24.3067 23.16 25.32C23.16 26.7867 22.8533 28.16 22.24 29.44C21.6267 30.6933 20.8133 31.8267 19.8 32.84C18.7333 33.88 17.5067 34.7067 16.12 35.32C14.7333 35.9067 13.2533 36.2 11.68 36.2C10.24 36.2 9.12 36.0667 8.32 35.8C7.52 35.5333 6.84 35.1467 6.28 34.64C5.72 34.16 5.24 33.4533 4.84 32.52C4.44 31.5867 4.24 30.1467 4.24 28.2V16.52H0.6V12.12H25.12ZM16.2 12.12C16.1733 11.2933 15.96 10.7067 15.56 10.36C15.16 9.98667 14.4533 9.8 13.44 9.8H10.44C8.41333 9.8 6.76 9.61333 5.48 9.24C4.22667 8.84 3.24 8.24 2.52 7.44C2.01333 6.88 1.64 6.22666 1.4 5.48C1.18667 4.70667 1.08 3.82667 1.08 2.84C1.08 2.44 1.09333 2.08 1.12 1.76C1.14667 1.41333 1.2 0.999998 1.28 0.519998L6.28 0.839998C6.25333 1.08 6.22667 1.29333 6.2 1.48C6.2 1.66666 6.2 1.84 6.2 2C6.2 2.56 6.25333 3.06667 6.36 3.52C6.49333 3.94667 6.70667 4.30666 7 4.6C7.29333 4.86667 7.66667 5.06667 8.12 5.2C8.57333 5.33333 9.30667 5.4 10.32 5.4H13.48C15.0533 5.4 16.2933 5.52 17.2 5.76C18.1333 6 18.92 6.42667 19.56 7.04C20.0667 7.54667 20.4533 8.21333 20.72 9.04C21.0133 9.84 21.1733 10.8667 21.2 12.12H16.2ZM30.3909 24.28C32.0976 25.2933 33.6709 26.4667 35.1109 27.8C36.5509 29.1067 37.8576 30.52 39.0309 32.04C40.2043 33.56 41.2576 35.1333 42.1909 36.76L38.1909 38.88C37.2043 37.4667 36.1909 36.1467 35.1509 34.92C34.1109 33.6933 32.9376 32.52 31.6309 31.4C30.3509 30.28 28.8576 29.2133 27.1509 28.2L30.3909 24.28ZM27.2709 18.04C27.2709 16.8667 27.5376 15.84 28.0709 14.96C28.6309 14.08 29.3776 13.3867 30.3109 12.88C31.2443 12.3733 32.2976 12.12 33.4709 12.12C34.6443 12.12 35.6976 12.3733 36.6309 12.88C37.5643 13.3867 38.2976 14.08 38.8309 14.96C39.3909 15.84 39.6709 16.8667 39.6709 18.04C39.6709 19.2133 39.3909 20.2533 38.8309 21.16C38.2976 22.04 37.5643 22.7333 36.6309 23.24C35.6976 23.7467 34.6443 24 33.4709 24C32.2976 24 31.2443 23.76 30.3109 23.28C29.3776 22.7733 28.6309 22.0667 28.0709 21.16C27.5376 20.2533 27.2709 19.2133 27.2709 18.04ZM31.3109 18.04C31.3109 18.68 31.5109 19.2133 31.9109 19.64C32.3376 20.04 32.8576 20.24 33.4709 20.24C34.0843 20.24 34.5909 20.04 34.9909 19.64C35.4176 19.2133 35.6309 18.68 35.6309 18.04C35.6309 17.4267 35.4176 16.92 34.9909 16.52C34.5909 16.0933 34.0843 15.88 33.4709 15.88C32.8576 15.88 32.3376 16.0933 31.9109 16.52C31.5109 16.92 31.3109 17.4267 31.3109 18.04Z" fill="#FFDB1D"/>
</svg>
