<svg width="71" height="65" viewBox="0 0 71 65" fill="none" xmlns="http://www.w3.org/2000/svg">
<path d="M41.8582 19.6559V27.1116H15.2274V46.9708C15.2274 48.5071 15.3184 49.6368 15.5005 50.3598C15.6826 51.0827 15.9557 51.625 16.3199 51.9864C16.9572 52.6642 18.0042 53.0031 19.461 53.0031C20.6901 53.0031 21.8737 52.7546 23.0117 52.2576C24.1498 51.7153 25.3106 50.8794 26.4942 49.7497C27.4957 48.846 28.2696 47.8745 28.8159 46.8352C29.3622 45.796 29.6353 44.7341 29.6353 43.6496C29.6353 42.7911 29.3622 42.0907 28.8159 41.5485C28.2696 41.0063 27.3819 40.7351 26.1528 40.7351C25.561 40.7351 25.0147 40.7577 24.514 40.8029C24.0588 40.8481 23.6263 40.9159 23.2166 41.0063L21.9875 33.6861C22.989 33.4602 23.9905 33.2795 24.992 33.1439C25.9935 33.0083 27.1543 32.9406 28.4745 32.9406C30.8872 32.9406 32.8219 33.3472 34.2786 34.1606C35.7354 34.9739 36.8051 36.0584 37.488 37.414C38.1708 38.7696 38.5122 40.3059 38.5122 42.0229C38.5122 44.5082 37.9887 46.8352 36.9417 49.0042C35.8947 51.1279 34.5062 53.0483 32.7764 54.7654C30.9555 56.5276 28.8614 57.9284 26.4942 58.9677C24.1271 59.9618 21.6005 60.4588 18.9147 60.4588C16.4565 60.4588 14.5445 60.2329 13.1788 59.781C11.8132 59.3292 10.6523 58.674 9.69634 57.8154C8.74037 57.0021 7.92096 55.8047 7.23812 54.2232C6.55527 52.6416 6.21385 50.2016 6.21385 46.903V27.1116H0V19.6559H41.8582ZM26.6308 19.6559C26.5853 18.2551 26.2211 17.261 25.5383 16.6736C24.8554 16.041 23.6491 15.7247 21.9192 15.7247H16.7979C13.3382 15.7247 10.5158 15.4084 8.33066 14.7758C6.19109 14.098 4.50675 13.0813 3.27764 11.7258C2.41271 10.7769 1.77539 9.6698 1.36568 8.40459C1.0015 7.0942 0.819409 5.60306 0.819409 3.93118C0.819409 3.25339 0.842171 2.64338 0.887693 2.10115C0.933216 1.51373 1.02426 0.813348 1.16083 0L9.69634 0.542233C9.65082 0.948906 9.6053 1.31039 9.55978 1.62669C9.55978 1.943 9.55978 2.23671 9.55978 2.50782C9.55978 3.45673 9.65082 4.31526 9.83291 5.08342C10.0605 5.8064 10.4247 6.41641 10.9255 6.91345C11.4262 7.36531 12.0635 7.70421 12.8374 7.93014C13.6113 8.15607 14.8632 8.26903 16.593 8.26903H21.9875C24.6733 8.26903 26.7901 8.47237 28.3379 8.87904C29.9312 9.28572 31.2741 10.0087 32.3667 11.048C33.2316 11.9065 33.8917 13.0361 34.3469 14.4369C34.8477 15.7925 35.1208 17.5322 35.1663 19.6559H26.6308Z" fill="#005D6A"/>
<path d="M50.8562 40.2607C53.7696 41.9778 56.4555 43.9659 58.9137 46.2252C61.3719 48.4394 63.6026 50.8342 65.6056 53.4098C67.6086 55.9854 69.4067 58.6514 71 61.4077L64.1716 65C62.4873 62.6051 60.7574 60.3684 58.982 58.2899C57.2066 56.2113 55.2036 54.2232 52.973 52.3253C50.7879 50.4275 48.2386 48.6201 45.3252 46.903L50.8562 40.2607ZM45.53 29.6872C45.53 27.699 45.9853 25.9593 46.8957 24.4682C47.8517 22.9771 49.1263 21.8022 50.7196 20.9437C52.3129 20.0852 54.1111 19.6559 56.1141 19.6559C58.1171 19.6559 59.9152 20.0852 61.5085 20.9437C63.1018 21.8022 64.3537 22.9771 65.2641 24.4682C66.2201 25.9593 66.6981 27.699 66.6981 29.6872C66.6981 31.6754 66.2201 33.4376 65.2641 34.9739C64.3537 36.4651 63.1018 37.6399 61.5085 38.4984C59.9152 39.357 58.1171 39.7862 56.1141 39.7862C54.1111 39.7862 52.3129 39.3796 50.7196 38.5662C49.1263 37.7077 47.8517 36.5103 46.8957 34.9739C45.9853 33.4376 45.53 31.6754 45.53 29.6872ZM52.4267 29.6872C52.4267 30.7716 52.7681 31.6754 53.451 32.3983C54.1794 33.0761 55.067 33.415 56.1141 33.415C57.1611 33.415 58.026 33.0761 58.7089 32.3983C59.4372 31.6754 59.8014 30.7716 59.8014 29.6872C59.8014 28.6479 59.4372 27.7894 58.7089 27.1116C58.026 26.3886 57.1611 26.0271 56.1141 26.0271C55.067 26.0271 54.1794 26.3886 53.451 27.1116C52.7681 27.7894 52.4267 28.6479 52.4267 29.6872Z" fill="#005D6A"/>
</svg>
